<svg xmlns="http://www.w3.org/2000/svg" width="64" height="64" viewBox="0 0 64 64" fill="none">
  <defs>
    <linearGradient id="goldStroke" x1="18" y1="14" x2="46" y2="50" gradientUnits="userSpaceOnUse">
      <stop offset="0" stop-color="#FFF2B8" />
      <stop offset="0.28" stop-color="#F6D46A" />
      <stop offset="0.55" stop-color="#D8A93A" />
      <stop offset="0.78" stop-color="#B9821F" />
      <stop offset="1" stop-color="#F1CD65" />
    </linearGradient>
    <linearGradient id="goldDark" x1="20" y1="18" x2="44" y2="46" gradientUnits="userSpaceOnUse">
      <stop offset="0" stop-color="#C18A24" />
      <stop offset="1" stop-color="#8F6416" />
    </linearGradient>
    <radialGradient id="sparkleFill" cx="0" cy="0" r="1" gradientUnits="userSpaceOnUse"
      gradientTransform="translate(47 17) rotate(90) scale(6)">
      <stop offset="0" stop-color="#FFFBEA" />
      <stop offset="0.55" stop-color="#FFF2B8" />
      <stop offset="1" stop-color="#F0C85D" />
    </radialGradient>
    <filter id="softGlow" x="-20%" y="-20%" width="140%" height="140%">
      <feGaussianBlur stdDeviation="1.2" result="blur" />
      <feMerge>
        <feMergeNode in="blur" />
        <feMergeNode in="SourceGraphic" />
      </feMerge>
    </filter>
  </defs>
  <g transform="translate(0 2)">
    <circle cx="32" cy="30" r="15" stroke="url(#goldDark)" stroke-width="10" stroke-linecap="round"
      opacity="0.95" />
    <circle cx="32" cy="30" r="15" stroke="url(#goldStroke)" stroke-width="8" stroke-linecap="round" />
    <g stroke-linecap="round" stroke-width="4.6">
      <path d="M32 15 A15 15 0 0 1 42.6 19.4" stroke="#FFF0B0" />
      <path d="M42.6 19.4 A15 15 0 0 1 47 30" stroke="#D19A2E" />
      <path d="M47 30 A15 15 0 0 1 42.6 40.6" stroke="#FFF0B0" />
      <path d="M42.6 40.6 A15 15 0 0 1 32 45" stroke="#D19A2E" />
      <path d="M32 45 A15 15 0 0 1 21.4 40.6" stroke="#FFF0B0" />
      <path d="M21.4 40.6 A15 15 0 0 1 17 30" stroke="#D19A2E" />
      <path d="M17 30 A15 15 0 0 1 21.4 19.4" stroke="#FFF0B0" />
      <path d="M21.4 19.4 A15 15 0 0 1 32 15" stroke="#D19A2E" />
    </g>

    <g opacity="0.9">
      <path d="M28.2 17.6c2.3 0.7 4.8 0.7 7.1 0" stroke="#8F6416" stroke-width="1.4"
        stroke-linecap="round" />
      <path d="M43.8 26.2c0.7 2.3 0.7 4.8 0 7.1" stroke="#8F6416" stroke-width="1.4"
        stroke-linecap="round" />
      <path d="M35.8 42.4c-2.3-0.7-4.8-0.7-7.1 0" stroke="#8F6416" stroke-width="1.4"
        stroke-linecap="round" />
      <path d="M20.2 33.8c-0.7-2.3-0.7-4.8 0-7.1" stroke="#8F6416" stroke-width="1.4"
        stroke-linecap="round" />
    </g>

    <circle cx="32" cy="30" r="11" stroke="#FFF4C8" stroke-width="1.5" opacity="0.55" />

    <g filter="url(#softGlow)" transform="translate(47 15)">
      <path d="M0-5.5L1.5-1.5L5.5 0L1.5 1.5L0 5.5L-1.5 1.5L-5.5 0L-1.5-1.5L0-5.5Z"
        fill="url(#sparkleFill)" stroke="#FFF7D7" stroke-width="0.8" stroke-linejoin="round" />
      <path d="M-6.5 8.2L-5.8 10L-4 10.7L-5.8 11.4L-6.5 13.2L-7.2 11.4L-9 10.7L-7.2 10L-6.5 8.2Z"
        fill="#FFF2B8" opacity="0.9" />
    </g>
  </g>
</svg>