<svg xmlns="http://www.w3.org/2000/svg" width="1280" height="720" viewBox="0 0 1280 720" fill="none">
  <rect width="1280" height="720" fill="#142318"/>
  <rect y="430" width="1280" height="290" fill="#263c25"/>
  <g opacity="0.75">
    <path d="M142 0C126 140 120 250 154 398C180 512 112 602 84 720H0V0H142Z" fill="#352919"/>
    <path d="M1146 0C1168 148 1164 260 1128 390C1094 512 1150 604 1190 720H1280V0H1146Z" fill="#302516"/>
    <path d="M462 0C438 150 446 268 486 374C522 470 496 588 448 720H340C390 592 390 482 352 376C314 270 324 138 350 0H462Z" fill="#2d2216"/>
  </g>
  <g opacity="0.5" fill="#31532b">
    <circle cx="180" cy="190" r="130"/>
    <circle cx="402" cy="130" r="150"/>
    <circle cx="736" cy="160" r="170"/>
    <circle cx="1044" cy="170" r="145"/>
  </g>
  <path d="M0 510C130 462 248 500 370 472C512 440 594 484 714 498C846 514 962 462 1280 490V720H0V510Z" fill="#314d2c"/>
  <g opacity="0.35" stroke="#7b5a2d" stroke-width="18" stroke-linecap="round">
    <path d="M82 640C214 560 306 548 456 596"/>
    <path d="M812 610C940 540 1050 542 1210 584"/>
    <path d="M378 694C526 606 692 612 836 682"/>
  </g>
  <g fill="#ffe89a" opacity="0.8">
    <circle cx="220" cy="318" r="4"/>
    <circle cx="286" cy="404" r="3"/>
    <circle cx="848" cy="300" r="4"/>
    <circle cx="1012" cy="398" r="3"/>
    <circle cx="704" cy="444" r="3"/>
  </g>
  <ellipse cx="640" cy="612" rx="420" ry="58" fill="#172416" opacity="0.5"/>
</svg>
