<svg xmlns="http://www.w3.org/2000/svg" width="1280" height="720" viewBox="0 0 1280 720" fill="none">
  <rect width="1280" height="720" fill="#18242c"/>
  <radialGradient id="shrineGlow" cx="0" cy="0" r="1" gradientUnits="userSpaceOnUse" gradientTransform="translate(640 330) scale(420 230)">
    <stop offset="0" stop-color="#84d8f2" stop-opacity="0.28"/>
    <stop offset="0.55" stop-color="#d8b765" stop-opacity="0.12"/>
    <stop offset="1" stop-color="#18242c" stop-opacity="0"/>
  </radialGradient>
  <rect width="1280" height="720" fill="url(#shrineGlow)"/>
  <rect y="430" width="1280" height="290" fill="#253229"/>
  <g opacity="0.58">
    <rect x="462" y="142" width="356" height="164" rx="12" fill="#38413b"/>
    <path d="M424 158H856L770 78H510L424 158Z" fill="#4c4031"/>
    <rect x="528" y="210" width="224" height="96" fill="#1d2625"/>
    <path d="M548 222H732" stroke="#d8b765" stroke-width="8" stroke-linecap="round" opacity="0.45"/>
  </g>
  <g opacity="0.52" stroke="#5d4731" stroke-width="22" stroke-linecap="round">
    <path d="M0 486C170 456 286 464 420 504"/>
    <path d="M850 498C1018 454 1122 454 1280 486"/>
    <path d="M380 650C522 548 758 550 914 650"/>
  </g>
  <g opacity="0.55" fill="#9db5af">
    <rect x="86" y="312" width="92" height="92" rx="8"/>
    <rect x="1090" y="306" width="92" height="92" rx="8"/>
    <rect x="244" y="382" width="70" height="58" rx="8"/>
    <rect x="968" y="386" width="70" height="58" rx="8"/>
  </g>
  <path d="M0 526C178 498 332 520 490 500C658 478 796 488 956 510C1088 528 1172 512 1280 494V720H0V526Z" fill="#314034"/>
  <g fill="#d9f8ff" opacity="0.78">
    <circle cx="516" cy="342" r="4"/>
    <circle cx="742" cy="334" r="3"/>
    <circle cx="614" cy="268" r="3"/>
    <circle cx="928" cy="424" r="3"/>
    <circle cx="356" cy="430" r="3"/>
  </g>
  <ellipse cx="640" cy="612" rx="430" ry="60" fill="#17211d" opacity="0.52"/>
</svg>
