<svg xmlns="http://www.w3.org/2000/svg" width="768" height="1024" viewBox="0 0 768 1024">
  <defs>
    <g id="kidlat">
      <ellipse cx="128" cy="192" rx="34" ry="11" fill="#162113" opacity=".28"/>
      <circle cx="128" cy="96" r="30" fill="#9d6536"/>
      <path d="M95 95c5-35 57-47 73-10-13-4-23-2-33 2-13 5-26 8-40 8z" fill="#1f2b19"/>
      <path d="M101 130h54l16 84H85z" fill="#365b2d"/>
      <path d="M109 136h38l16 42H93z" fill="#d5a244"/>
      <path d="M89 146l-22 38M167 146l22 38" stroke="#9d6536" stroke-width="15" stroke-linecap="round"/>
      <path d="M106 213l-8 29M150 213l8 29" stroke="#2d241b" stroke-width="16" stroke-linecap="round"/>
      <path d="M155 84l21-18-8 25 18-2-30 31 8-28z" fill="#f1cf58"/>
      <circle cx="116" cy="101" r="4" fill="#211611"/>
      <circle cx="140" cy="101" r="4" fill="#211611"/>
    </g>
  </defs>
  <rect width="768" height="1024" fill="none"/>
  <use href="#kidlat" x="0" y="0"/>
  <use href="#kidlat" x="256" y="0"/>
  <use href="#kidlat" x="512" y="0"/>
  <use href="#kidlat" x="0" y="256"/>
  <use href="#kidlat" x="256" y="256"/>
  <use href="#kidlat" x="512" y="256"/>
  <use href="#kidlat" x="0" y="512"/>
  <use href="#kidlat" x="256" y="512"/>
  <use href="#kidlat" x="512" y="512"/>
  <use href="#kidlat" x="0" y="768"/>
  <use href="#kidlat" x="256" y="768"/>
  <use href="#kidlat" x="512" y="768"/>
</svg>
