<svg xmlns="http://www.w3.org/2000/svg" width="768" height="1024" viewBox="0 0 768 1024">
  <rect width="768" height="1024" fill="none"/>
  <g transform="translate(128, 0) scale(1) translate(-128, 0)">
    <ellipse cx="128" cy="203" rx="42" ry="13" fill="#11180f" opacity="0.18"/>
    <path d="M96 145 Q128 102 160 145 L151 198 Q128 218 105 198 Z" fill="#38bdf8" stroke="#2a2118" stroke-width="6"/>
    <circle cx="128" cy="86" r="36" fill="#38bdf8" stroke="#2a2118" stroke-width="6"/>
    <path d="M95 79 Q128 46 162 81" fill="none" stroke="#fff6df" stroke-width="10" stroke-linecap="round" opacity="0.65"/>
    <path d="M96 164 l-26 24" stroke="#2a2118" stroke-width="14" stroke-linecap="round"/>
    <path d="M160 164 l26 24" stroke="#2a2118" stroke-width="14" stroke-linecap="round"/>
    <path d="M113 200 l-16 34" stroke="#2a2118" stroke-width="15" stroke-linecap="round"/>
    <path d="M143 200 l16 34" stroke="#2a2118" stroke-width="15" stroke-linecap="round"/>
    <circle cx="145" cy="152" r="7" fill="#fff6df" opacity="0.82"/>
  </g>
  <g transform="translate(384, 0) scale(1) translate(-128, 0)">
    <ellipse cx="124.4" cy="203" rx="42" ry="13" fill="#11180f" opacity="0.18"/>
    <path d="M87 145 Q128 102 151 145 L151 198 Q128 218 105 198 Z" fill="#38bdf8" stroke="#2a2118" stroke-width="6"/>
    <circle cx="125.75" cy="86" r="36" fill="#38bdf8" stroke="#2a2118" stroke-width="6"/>
    <path d="M86 79 Q128 46 153 81" fill="none" stroke="#fff6df" stroke-width="10" stroke-linecap="round" opacity="0.65"/>
    <path d="M87 164 l-30.5 27.6" stroke="#2a2118" stroke-width="14" stroke-linecap="round"/>
    <path d="M151 164 l30.5 20.4" stroke="#2a2118" stroke-width="14" stroke-linecap="round"/>
    <path d="M104 200 l-12.76 34" stroke="#2a2118" stroke-width="15" stroke-linecap="round"/>
    <path d="M134 200 l12.76 34" stroke="#2a2118" stroke-width="15" stroke-linecap="round"/>
    <circle cx="145" cy="152" r="7" fill="#fff6df" opacity="0.82"/>
  </g>
  <g transform="translate(640, 0) scale(1) translate(-128, 0)">
    <ellipse cx="131.6" cy="203" rx="42" ry="13" fill="#11180f" opacity="0.18"/>
    <path d="M105 145 Q128 102 169 145 L151 198 Q128 218 105 198 Z" fill="#38bdf8" stroke="#2a2118" stroke-width="6"/>
    <circle cx="130.25" cy="86" r="36" fill="#38bdf8" stroke="#2a2118" stroke-width="6"/>
    <path d="M104 79 Q128 46 171 81" fill="none" stroke="#fff6df" stroke-width="10" stroke-linecap="round" opacity="0.65"/>
    <path d="M105 164 l-21.5 20.4" stroke="#2a2118" stroke-width="14" stroke-linecap="round"/>
    <path d="M169 164 l21.5 27.6" stroke="#2a2118" stroke-width="14" stroke-linecap="round"/>
    <path d="M122 200 l-19.24 34" stroke="#2a2118" stroke-width="15" stroke-linecap="round"/>
    <path d="M152 200 l19.24 34" stroke="#2a2118" stroke-width="15" stroke-linecap="round"/>
    <circle cx="145" cy="152" r="7" fill="#fff6df" opacity="0.82"/>
  </g>
  <g transform="translate(116, 256) scale(1) translate(-128, 0)">
    <ellipse cx="128" cy="203" rx="42" ry="13" fill="#11180f" opacity="0.18"/>
    <path d="M96 145 Q128 102 160 145 L151 198 Q128 218 105 198 Z" fill="#38bdf8" stroke="#2a2118" stroke-width="6"/>
    <circle cx="128" cy="86" r="36" fill="#38bdf8" stroke="#2a2118" stroke-width="6"/>
    <path d="M95 79 Q128 46 162 81" fill="none" stroke="#fff6df" stroke-width="10" stroke-linecap="round" opacity="0.65"/>
    <path d="M96 164 l-26 24" stroke="#2a2118" stroke-width="14" stroke-linecap="round"/>
    <path d="M160 164 l26 24" stroke="#2a2118" stroke-width="14" stroke-linecap="round"/>
    <path d="M113 200 l-16 34" stroke="#2a2118" stroke-width="15" stroke-linecap="round"/>
    <path d="M143 200 l16 34" stroke="#2a2118" stroke-width="15" stroke-linecap="round"/>
    <circle cx="145" cy="152" r="7" fill="#fff6df" opacity="0.82"/>
  </g>
  <g transform="translate(372, 256) scale(1) translate(-128, 0)">
    <ellipse cx="124.4" cy="203" rx="42" ry="13" fill="#11180f" opacity="0.18"/>
    <path d="M87 145 Q128 102 151 145 L151 198 Q128 218 105 198 Z" fill="#38bdf8" stroke="#2a2118" stroke-width="6"/>
    <circle cx="125.75" cy="86" r="36" fill="#38bdf8" stroke="#2a2118" stroke-width="6"/>
    <path d="M86 79 Q128 46 153 81" fill="none" stroke="#fff6df" stroke-width="10" stroke-linecap="round" opacity="0.65"/>
    <path d="M87 164 l-30.5 27.6" stroke="#2a2118" stroke-width="14" stroke-linecap="round"/>
    <path d="M151 164 l30.5 20.4" stroke="#2a2118" stroke-width="14" stroke-linecap="round"/>
    <path d="M104 200 l-12.76 34" stroke="#2a2118" stroke-width="15" stroke-linecap="round"/>
    <path d="M134 200 l12.76 34" stroke="#2a2118" stroke-width="15" stroke-linecap="round"/>
    <circle cx="145" cy="152" r="7" fill="#fff6df" opacity="0.82"/>
  </g>
  <g transform="translate(628, 256) scale(1) translate(-128, 0)">
    <ellipse cx="131.6" cy="203" rx="42" ry="13" fill="#11180f" opacity="0.18"/>
    <path d="M105 145 Q128 102 169 145 L151 198 Q128 218 105 198 Z" fill="#38bdf8" stroke="#2a2118" stroke-width="6"/>
    <circle cx="130.25" cy="86" r="36" fill="#38bdf8" stroke="#2a2118" stroke-width="6"/>
    <path d="M104 79 Q128 46 171 81" fill="none" stroke="#fff6df" stroke-width="10" stroke-linecap="round" opacity="0.65"/>
    <path d="M105 164 l-21.5 20.4" stroke="#2a2118" stroke-width="14" stroke-linecap="round"/>
    <path d="M169 164 l21.5 27.6" stroke="#2a2118" stroke-width="14" stroke-linecap="round"/>
    <path d="M122 200 l-19.24 34" stroke="#2a2118" stroke-width="15" stroke-linecap="round"/>
    <path d="M152 200 l19.24 34" stroke="#2a2118" stroke-width="15" stroke-linecap="round"/>
    <circle cx="145" cy="152" r="7" fill="#fff6df" opacity="0.82"/>
  </g>
  <g transform="translate(140, 512) scale(1) translate(-128, 0)">
    <ellipse cx="128" cy="203" rx="42" ry="13" fill="#11180f" opacity="0.18"/>
    <path d="M96 145 Q128 102 160 145 L151 198 Q128 218 105 198 Z" fill="#38bdf8" stroke="#2a2118" stroke-width="6"/>
    <circle cx="128" cy="86" r="36" fill="#38bdf8" stroke="#2a2118" stroke-width="6"/>
    <path d="M95 79 Q128 46 162 81" fill="none" stroke="#fff6df" stroke-width="10" stroke-linecap="round" opacity="0.65"/>
    <path d="M96 164 l-26 24" stroke="#2a2118" stroke-width="14" stroke-linecap="round"/>
    <path d="M160 164 l26 24" stroke="#2a2118" stroke-width="14" stroke-linecap="round"/>
    <path d="M113 200 l-16 34" stroke="#2a2118" stroke-width="15" stroke-linecap="round"/>
    <path d="M143 200 l16 34" stroke="#2a2118" stroke-width="15" stroke-linecap="round"/>
    <circle cx="145" cy="152" r="7" fill="#fff6df" opacity="0.82"/>
  </g>
  <g transform="translate(396, 512) scale(1) translate(-128, 0)">
    <ellipse cx="124.4" cy="203" rx="42" ry="13" fill="#11180f" opacity="0.18"/>
    <path d="M87 145 Q128 102 151 145 L151 198 Q128 218 105 198 Z" fill="#38bdf8" stroke="#2a2118" stroke-width="6"/>
    <circle cx="125.75" cy="86" r="36" fill="#38bdf8" stroke="#2a2118" stroke-width="6"/>
    <path d="M86 79 Q128 46 153 81" fill="none" stroke="#fff6df" stroke-width="10" stroke-linecap="round" opacity="0.65"/>
    <path d="M87 164 l-30.5 27.6" stroke="#2a2118" stroke-width="14" stroke-linecap="round"/>
    <path d="M151 164 l30.5 20.4" stroke="#2a2118" stroke-width="14" stroke-linecap="round"/>
    <path d="M104 200 l-12.76 34" stroke="#2a2118" stroke-width="15" stroke-linecap="round"/>
    <path d="M134 200 l12.76 34" stroke="#2a2118" stroke-width="15" stroke-linecap="round"/>
    <circle cx="145" cy="152" r="7" fill="#fff6df" opacity="0.82"/>
  </g>
  <g transform="translate(652, 512) scale(1) translate(-128, 0)">
    <ellipse cx="131.6" cy="203" rx="42" ry="13" fill="#11180f" opacity="0.18"/>
    <path d="M105 145 Q128 102 169 145 L151 198 Q128 218 105 198 Z" fill="#38bdf8" stroke="#2a2118" stroke-width="6"/>
    <circle cx="130.25" cy="86" r="36" fill="#38bdf8" stroke="#2a2118" stroke-width="6"/>
    <path d="M104 79 Q128 46 171 81" fill="none" stroke="#fff6df" stroke-width="10" stroke-linecap="round" opacity="0.65"/>
    <path d="M105 164 l-21.5 20.4" stroke="#2a2118" stroke-width="14" stroke-linecap="round"/>
    <path d="M169 164 l21.5 27.6" stroke="#2a2118" stroke-width="14" stroke-linecap="round"/>
    <path d="M122 200 l-19.24 34" stroke="#2a2118" stroke-width="15" stroke-linecap="round"/>
    <path d="M152 200 l19.24 34" stroke="#2a2118" stroke-width="15" stroke-linecap="round"/>
    <circle cx="145" cy="152" r="7" fill="#fff6df" opacity="0.82"/>
  </g>
  <g transform="translate(128, 768) scale(1) translate(-128, 0)">
    <ellipse cx="128" cy="203" rx="42" ry="13" fill="#11180f" opacity="0.18"/>
    <path d="M96 145 Q128 102 160 145 L151 198 Q128 218 105 198 Z" fill="#38bdf8" stroke="#2a2118" stroke-width="6"/>
    <circle cx="128" cy="86" r="36" fill="#38bdf8" stroke="#2a2118" stroke-width="6"/>
    <path d="M95 79 Q128 46 162 81" fill="none" stroke="#fff6df" stroke-width="10" stroke-linecap="round" opacity="0.25"/>
    <path d="M96 164 l-26 24" stroke="#2a2118" stroke-width="14" stroke-linecap="round"/>
    <path d="M160 164 l26 24" stroke="#2a2118" stroke-width="14" stroke-linecap="round"/>
    <path d="M113 200 l-16 34" stroke="#2a2118" stroke-width="15" stroke-linecap="round"/>
    <path d="M143 200 l16 34" stroke="#2a2118" stroke-width="15" stroke-linecap="round"/>
    <circle cx="145" cy="152" r="7" fill="#fff6df" opacity="0.82"/>
  </g>
  <g transform="translate(384, 768) scale(1) translate(-128, 0)">
    <ellipse cx="124.4" cy="203" rx="42" ry="13" fill="#11180f" opacity="0.18"/>
    <path d="M87 145 Q128 102 151 145 L151 198 Q128 218 105 198 Z" fill="#38bdf8" stroke="#2a2118" stroke-width="6"/>
    <circle cx="125.75" cy="86" r="36" fill="#38bdf8" stroke="#2a2118" stroke-width="6"/>
    <path d="M86 79 Q128 46 153 81" fill="none" stroke="#fff6df" stroke-width="10" stroke-linecap="round" opacity="0.25"/>
    <path d="M87 164 l-30.5 27.6" stroke="#2a2118" stroke-width="14" stroke-linecap="round"/>
    <path d="M151 164 l30.5 20.4" stroke="#2a2118" stroke-width="14" stroke-linecap="round"/>
    <path d="M104 200 l-12.76 34" stroke="#2a2118" stroke-width="15" stroke-linecap="round"/>
    <path d="M134 200 l12.76 34" stroke="#2a2118" stroke-width="15" stroke-linecap="round"/>
    <circle cx="145" cy="152" r="7" fill="#fff6df" opacity="0.82"/>
  </g>
  <g transform="translate(640, 768) scale(1) translate(-128, 0)">
    <ellipse cx="131.6" cy="203" rx="42" ry="13" fill="#11180f" opacity="0.18"/>
    <path d="M105 145 Q128 102 169 145 L151 198 Q128 218 105 198 Z" fill="#38bdf8" stroke="#2a2118" stroke-width="6"/>
    <circle cx="130.25" cy="86" r="36" fill="#38bdf8" stroke="#2a2118" stroke-width="6"/>
    <path d="M104 79 Q128 46 171 81" fill="none" stroke="#fff6df" stroke-width="10" stroke-linecap="round" opacity="0.25"/>
    <path d="M105 164 l-21.5 20.4" stroke="#2a2118" stroke-width="14" stroke-linecap="round"/>
    <path d="M169 164 l21.5 27.6" stroke="#2a2118" stroke-width="14" stroke-linecap="round"/>
    <path d="M122 200 l-19.24 34" stroke="#2a2118" stroke-width="15" stroke-linecap="round"/>
    <path d="M152 200 l19.24 34" stroke="#2a2118" stroke-width="15" stroke-linecap="round"/>
    <circle cx="145" cy="152" r="7" fill="#fff6df" opacity="0.82"/>
  </g>
</svg>
