<svg xmlns="http://www.w3.org/2000/svg" width="768" height="1024" viewBox="0 0 768 1024">
  <defs>
    <filter id="glow" x="-40%" y="-40%" width="180%" height="180%">
      <feGaussianBlur stdDeviation="4" result="blur"/>
      <feMerge><feMergeNode in="blur"/><feMergeNode in="SourceGraphic"/></feMerge>
    </filter>
    <g id="echo">
      <ellipse cx="128" cy="198" rx="36" ry="12" fill="#6abfff" opacity=".18"/>
      <path d="M93 207c5-55 18-95 35-119 17 24 30 64 35 119-21 13-49 13-70 0z" fill="#82a7a6" opacity=".72" filter="url(#glow)"/>
      <circle cx="128" cy="91" r="27" fill="#dffaff" opacity=".86"/>
      <path d="M101 97c8-34 47-43 61-8-13-2-25 4-34 13-9-8-18-9-27-5z" fill="#263447" opacity=".9"/>
      <path d="M105 132h46l14 74H91z" fill="#4f665e" opacity=".82"/>
      <path d="M108 143h40l11 34H97z" fill="#d8b765" opacity=".55"/>
      <path d="M91 147l-25 36M165 147l25 36" stroke="#dffaff" stroke-width="12" stroke-linecap="round" opacity=".72"/>
      <path d="M112 211l-10 28M144 211l10 28" stroke="#dffaff" stroke-width="12" stroke-linecap="round" opacity=".62"/>
      <circle cx="117" cy="96" r="3.5" fill="#263447"/>
      <circle cx="139" cy="96" r="3.5" fill="#263447"/>
      <path d="M82 80c18-17 36-25 56-24M170 116c-10 22-26 38-48 48M87 144c17 13 33 18 49 15" fill="none" stroke="#9cecff" stroke-width="3" stroke-linecap="round" opacity=".45"/>
    </g>
  </defs>
  <rect width="768" height="1024" fill="none"/>
  <use href="#echo" x="0" y="0"/>
  <use href="#echo" x="256" y="0"/>
  <use href="#echo" x="512" y="0"/>
  <use href="#echo" x="0" y="256"/>
  <use href="#echo" x="256" y="256"/>
  <use href="#echo" x="512" y="256"/>
  <use href="#echo" x="0" y="512"/>
  <use href="#echo" x="256" y="512"/>
  <use href="#echo" x="512" y="512"/>
  <use href="#echo" x="0" y="768"/>
  <use href="#echo" x="256" y="768"/>
  <use href="#echo" x="512" y="768"/>
</svg>
